<svg width="25" height="24" viewBox="0 0 25 24" fill="none" xmlns="http://www.w3.org/2000/svg">
<g clip-path="url(#clip0_438_6572)">
<path d="M12.2505 12.112C14.4568 12.112 16.2454 10.3234 16.2454 8.11703C16.2454 5.91068 14.4568 4.12207 12.2505 4.12207C10.0441 4.12207 8.25549 5.91068 8.25549 8.11703C8.25549 10.3234 10.0441 12.112 12.2505 12.112Z" fill="#1275AF"/>
<path d="M15.1459 11.7129C14.4468 12.412 13.1484 12.7116 12.2496 12.7116C11.3507 12.7116 10.0524 12.412 9.35324 11.7129C6.75651 12.7116 4.85891 15.8077 4.35954 18.6042C4.15979 19.4032 4.75903 20.1023 5.6579 20.4019C7.25588 20.9013 9.85261 21.2009 12.3495 21.2009C15.6453 21.2009 17.7427 20.9013 19.2408 20.4019C19.9399 20.2022 20.4393 19.6029 20.3394 18.9038C19.7401 16.0075 17.8425 12.7116 15.1459 11.7129Z" fill="#1275AF"/>
<path d="M9.15398 11.3131C8.55473 10.7138 8.15524 10.0147 7.95549 9.21572C7.45612 9.31559 6.95675 9.41547 6.55725 9.41547C5.85813 9.41547 4.85939 9.11585 4.26015 8.5166C2.26267 9.31559 0.664683 11.8124 0.265187 14.0097C0.165313 14.7088 0.564809 15.2082 1.26393 15.4079C2.16279 15.7075 3.36128 15.9073 4.65964 16.0072C5.55851 14.0097 7.1565 12.1121 9.15398 11.3131Z" fill="#1275AF"/>
<path d="M6.5573 8.91635C6.95679 8.91635 7.45616 8.81648 7.75579 8.7166C7.75579 8.51686 7.75579 8.31711 7.75579 8.11736C7.75579 6.71912 8.4549 5.42076 9.55352 4.52189C9.05415 3.32341 7.95553 2.52441 6.5573 2.52441C4.85944 2.52441 3.36133 3.92265 3.36133 5.72038C3.36133 7.51812 4.85944 8.91635 6.5573 8.91635Z" fill="#1275AF"/>
<path d="M24.2346 14.2101C23.8351 11.913 22.337 9.41618 20.2396 8.61719C19.6404 9.21643 18.6416 9.41618 17.9425 9.41618C17.543 9.41618 17.0437 9.31631 16.6442 9.21643C16.4444 10.0154 16.0449 10.7145 15.4457 11.3138C17.4432 12.1128 18.9413 14.0104 19.94 16.0079C21.4381 15.908 22.6366 15.7082 23.4356 15.4086C23.935 15.2089 24.3345 14.8094 24.2346 14.2101Z" fill="#1275AF"/>
<path d="M16.744 8.11736C16.744 8.31711 16.744 8.51686 16.744 8.7166C17.1435 8.91635 17.543 8.91635 17.9425 8.91635C19.7402 8.91635 21.1385 7.51812 21.1385 5.72038C21.1385 3.92265 19.6404 2.52441 17.9425 2.52441C16.6441 2.52441 15.4457 3.32341 14.9463 4.52189C16.0449 5.32089 16.744 6.61925 16.744 8.11736Z" fill="#1275AF"/>
</g>
<defs>
<clipPath id="clip0_438_6572">
<rect width="24" height="24" fill="white" transform="translate(0.25)"/>
</clipPath>
</defs>
</svg>
