<svg width="21" height="24" viewBox="0 0 21 24" fill="none" xmlns="http://www.w3.org/2000/svg">
<path d="M20.9999 2.1V16.7C20.9999 17.3 20.7999 17.8 20.3999 18.2C19.9999 18.6 19.4999 18.8 18.8999 18.8H17.5999V7.3C17.5999 5.2 15.8999 3.4 13.6999 3.4H5.4999V2.1C5.4999 1 6.4999 0 7.6999 0H18.7999C19.3999 0 19.8999 0.2 20.2999 0.6C20.6999 1 20.9999 1.6 20.9999 2.1ZM13.6999 5.1H2.4999C1.3999 5.1 0.399902 6.1 0.399902 7.3V21.9C0.399902 22.5 0.599902 23 0.999902 23.4C1.3999 23.8 1.9999 24 2.4999 24H13.5999C14.1999 24 14.6999 23.8 15.0999 23.4C15.4999 23 15.6999 22.5 15.6999 21.9V7.3C15.6999 6.7 15.4999 6.2 15.0999 5.8C14.7999 5.4 14.2999 5.1 13.6999 5.1Z" fill="#607E9C"/>
</svg>
