<svg width="24" height="26" viewBox="0 0 24 26" fill="none" xmlns="http://www.w3.org/2000/svg">
<path d="M15.3 11.3496H8.7C7.2 11.3496 6 12.5496 6 14.0496V17.7496C6 19.3496 7.3 20.7496 9 20.7496H15C16.6 20.7496 18 19.4496 18 17.7496V14.0496C18 12.5496 16.8 11.3496 15.3 11.3496ZM16.6 17.8496C16.6 18.7496 15.9 19.4496 15 19.4496H9C8.1 19.4496 7.4 18.7496 7.4 17.8496V14.1496C7.4 13.2496 8.1 12.5496 9 12.5496H15C15.9 12.5496 16.6 13.2496 16.6 14.1496V17.8496Z" fill="#607E9C"/>
<path d="M8.70002 10.8484H9.60002V9.24844C9.60002 7.94844 10.7 6.84844 12 6.84844C13.3 6.84844 14.4 7.94844 14.4 9.24844V10.8484H15.3C15.6 10.8484 15.8 10.8484 16.1 10.9484V9.24844C16.1 7.04844 14.3 5.14844 12 5.14844C9.70002 5.14844 7.90002 7.04844 7.90002 9.24844V10.9484C8.20002 10.8484 8.40002 10.8484 8.70002 10.8484Z" fill="#607E9C"/>
<path d="M14.6 13.3496H9.40002C8.80002 13.3496 8.40002 13.8496 8.40002 14.3496V17.6496C8.40002 18.2496 8.90002 18.6496 9.40002 18.6496H14.6C15.2 18.6496 15.6 18.1496 15.6 17.6496V14.3496C15.6 13.7496 15.2 13.3496 14.6 13.3496ZM12.6 16.2496V17.1496C12.6 17.4496 12.3 17.7496 12 17.7496C11.7 17.7496 11.4 17.4496 11.4 17.1496V16.2496C11.1 16.0496 11 15.7496 11 15.3496C11 14.7496 11.5 14.2496 12.1 14.2496C12.7 14.2496 13.2 14.7496 13.2 15.3496C13.1 15.6496 12.9 16.0496 12.6 16.2496Z" fill="#607E9C"/>
<path d="M15.3 11.3496H8.7C7.2 11.3496 6 12.5496 6 14.0496V17.7496C6 19.3496 7.3 20.7496 9 20.7496H15C16.6 20.7496 18 19.4496 18 17.7496V14.0496C18 12.5496 16.8 11.3496 15.3 11.3496ZM16.6 17.8496C16.6 18.7496 15.9 19.4496 15 19.4496H9C8.1 19.4496 7.4 18.7496 7.4 17.8496V14.1496C7.4 13.2496 8.1 12.5496 9 12.5496H15C15.9 12.5496 16.6 13.2496 16.6 14.1496V17.8496Z" fill="#607E9C"/>
<path d="M22.6 20.8488V18.6488C22.6 17.4488 21.7 16.5488 20.5 16.5488H18.9V17.8488V17.9488H20.5C20.9 17.9488 21.2 18.2488 21.2 18.6488V20.8488C20.4 21.1488 19.8 21.9488 19.8 22.8488C19.8 24.0488 20.7 25.0488 21.9 25.0488C23.1 25.0488 24 24.0488 24 22.8488C24 21.8488 23.4 21.0488 22.6 20.8488Z" fill="#607E9C"/>
<path d="M2.8 20.8488V18.6488C2.8 18.2488 3.1 17.9488 3.5 17.9488H5.1V17.8488V16.5488H3.5C2.3 16.5488 1.4 17.4488 1.4 18.6488V20.8488C0.6 21.1488 0 21.9488 0 22.8488C0 23.9488 0.9 24.9488 2.1 24.9488C3.3 24.9488 4.2 23.9488 4.2 22.7488C4.2 21.8488 3.6 21.0488 2.8 20.8488Z" fill="#607E9C"/>
<path d="M23.3 10.8496C22.9 10.8496 22.6 11.1496 22.6 11.5496V12.2496H18.4C18.6 12.6496 18.8 13.1496 18.8 13.6496H22.5V14.3496C22.5 14.7496 22.8 15.0496 23.2 15.0496C23.6 15.0496 23.9 14.7496 23.9 14.3496V11.5496C24 11.1496 23.7 10.8496 23.3 10.8496Z" fill="#607E9C"/>
<path d="M5.6 12.2496H1.4V11.5496C1.4 11.1496 1.1 10.8496 0.7 10.8496C0.3 10.8496 0 11.1496 0 11.5496V14.3496C0 14.7496 0.3 15.0496 0.7 15.0496C1.1 15.0496 1.4 14.7496 1.4 14.3496V13.6496H5.1C5.2 13.1496 5.3 12.6496 5.6 12.2496Z" fill="#607E9C"/>
<path d="M21.9 0.949219C20.7 0.949219 19.8 1.94922 19.8 3.14922C19.8 4.04922 20.4001 4.84922 21.2001 5.14922V7.34922C21.2001 7.74922 20.9 8.04922 20.5 8.04922H16.8C16.9 8.44922 17 8.84922 17 9.24922V9.44922H20.5C21.7 9.44922 22.6 8.54922 22.6 7.34922V5.04922C23.4001 4.74922 24 3.94922 24 3.04922C24 1.94922 23.1 0.949219 21.9 0.949219Z" fill="#607E9C"/>
<path d="M7.1 9.24922C7.1 8.84922 7.2 8.44922 7.3 8.04922H3.5C3.1 8.04922 2.8 7.74922 2.8 7.34922V5.04922C3.6 4.74922 4.2 3.94922 4.2 3.04922C4.2 1.94922 3.3 0.949219 2.1 0.949219C0.9 0.949219 0 1.94922 0 3.14922C0 4.04922 0.6 4.84922 1.4 5.14922V7.34922C1.4 8.54922 2.3 9.44922 3.5 9.44922H7C7.1 9.44922 7.1 9.24922 7.1 9.24922Z" fill="#607E9C"/>
</svg>
