<svg width="40" height="40" viewBox="0 0 40 40" fill="none" xmlns="http://www.w3.org/2000/svg">
<rect width="40" height="40" rx="20" fill="#29B0FF"/>
<path fill-rule="evenodd" clip-rule="evenodd" d="M21.084 26.408L16.6358 19.9999L21.084 13.5917C21.1594 13.5163 21.1594 13.3655 21.084 13.2901C21.0086 13.1394 20.9332 13.064 20.8578 13.064H15.8065C15.7311 13.064 15.6557 13.1394 15.5803 13.2147L11.0568 19.8491C10.9814 19.9245 10.9814 20.0753 11.0568 20.1507L15.5803 26.785C15.6557 26.8604 15.7311 26.9358 15.8065 26.9358H20.8578C20.9332 26.9358 21.084 26.8604 21.084 26.785C21.1594 26.6342 21.1594 26.4834 21.084 26.408Z" fill="white"/>
<path fill-rule="evenodd" clip-rule="evenodd" d="M28.9244 26.408L24.4762 19.9999L28.9244 13.5163C28.9998 13.4409 28.9998 13.2901 28.9998 13.2147C28.9244 13.1394 28.849 13.064 28.6982 13.064H23.6469C23.5715 13.064 23.4961 13.1394 23.4207 13.2147L18.8972 19.8491C18.8218 19.9245 18.8218 20.0753 18.8972 20.1507L23.4207 26.785C23.4961 26.8604 23.5715 26.9358 23.6469 26.9358H28.6982C28.7736 26.9358 28.9244 26.8604 28.9244 26.785C28.9998 26.6342 28.9998 26.4834 28.9244 26.408Z" fill="white"/>
</svg>
