<svg width="18" height="14" viewBox="0 0 18 14" fill="none" xmlns="http://www.w3.org/2000/svg">
<path fill-rule="evenodd" clip-rule="evenodd" d="M10.084 13.408L5.63581 6.99987L10.084 0.591697C10.1594 0.516307 10.1594 0.365526 10.084 0.290136C10.0086 0.139355 9.93317 0.0639648 9.85778 0.0639648H4.80649C4.7311 0.0639648 4.6557 0.139355 4.58031 0.214745L0.0567656 6.84909C-0.0186262 6.92448 -0.0186262 7.07526 0.0567656 7.15065L4.58031 13.785C4.6557 13.8604 4.7311 13.9358 4.80649 13.9358H9.85778C9.93317 13.9358 10.084 13.8604 10.084 13.785C10.1594 13.6342 10.1594 13.4834 10.084 13.408Z" fill="white"/>
<path fill-rule="evenodd" clip-rule="evenodd" d="M17.9244 13.408L13.4762 6.99987L17.9244 0.516307C17.9998 0.440916 17.9998 0.290136 17.9998 0.214745C17.9244 0.139355 17.849 0.0639648 17.6982 0.0639648H12.6469C12.5715 0.0639648 12.4961 0.139355 12.4207 0.214745L7.89717 6.84909C7.82178 6.92448 7.82178 7.07526 7.89717 7.15065L12.4207 13.785C12.4961 13.8604 12.5715 13.9358 12.6469 13.9358H17.6982C17.7736 13.9358 17.9244 13.8604 17.9244 13.785C17.9998 13.6342 17.9998 13.4834 17.9244 13.408Z" fill="white"/>
</svg>
