<svg width="21" height="30" viewBox="0 0 21 30" fill="none" xmlns="http://www.w3.org/2000/svg">
<path fill-rule="evenodd" clip-rule="evenodd" d="M0.138124 16.875C-0.115275 17.25 0.0114244 17.625 0.264823 18L9.64056 29.625C9.89395 29.875 10.1474 30 10.5275 30C10.9075 30 11.1609 29.875 11.4143 29.625L20.7901 18C21.0435 17.625 21.0435 17.25 20.9168 16.875C20.6634 16.5 20.2833 16.25 19.9032 16.25H15.0886V1.125C15.0886 0.5 14.5818 0 13.9483 0H6.97988C6.34638 0 5.83958 0.5 5.83958 1.125V16.25H1.15172C0.64492 16.25 0.264823 16.5 0.138124 16.875Z" fill="#29B0FF"/>
</svg>
