<svg width="40" height="40" viewBox="0 0 40 40" fill="none" xmlns="http://www.w3.org/2000/svg">
<g filter="url(#filter0_ii_438_5834)">
<rect width="40" height="40" rx="20" fill="#D929FF"/>
</g>
<path d="M11 28.3985C11 28.5489 11 28.7744 11.1504 28.8496C11.3008 28.9248 11.376 29 11.5264 29H11.6016L16.4893 28.0977L11.752 23.3604L11 28.3985Z" fill="white"/>
<path d="M12.3535 22.4581L17.4668 27.5714L25.8136 18.9991L20.7003 13.8857L12.3535 22.4581Z" fill="white"/>
<path d="M28.1446 16.593C28.8965 15.8411 28.8965 14.5627 28.0694 13.8108L25.7383 11.5549C24.9864 10.8029 23.708 10.8029 22.9561 11.6301L21.4521 13.134L26.5655 18.2473L28.1446 16.593Z" fill="white"/>
<defs>
<filter id="filter0_ii_438_5834" x="0" y="0" width="40" height="40" filterUnits="userSpaceOnUse" color-interpolation-filters="sRGB">
<feFlood flood-opacity="0" result="BackgroundImageFix"/>
<feBlend mode="normal" in="SourceGraphic" in2="BackgroundImageFix" result="shape"/>
<feColorMatrix in="SourceAlpha" type="matrix" values="0 0 0 0 0 0 0 0 0 0 0 0 0 0 0 0 0 0 127 0" result="hardAlpha"/>
<feOffset dy="2"/>
<feComposite in2="hardAlpha" operator="arithmetic" k2="-1" k3="1"/>
<feColorMatrix type="matrix" values="0 0 0 0 1 0 0 0 0 1 0 0 0 0 1 0 0 0 0.25 0"/>
<feBlend mode="normal" in2="shape" result="effect1_innerShadow_438_5834"/>
<feColorMatrix in="SourceAlpha" type="matrix" values="0 0 0 0 0 0 0 0 0 0 0 0 0 0 0 0 0 0 127 0" result="hardAlpha"/>
<feOffset dy="-2"/>
<feComposite in2="hardAlpha" operator="arithmetic" k2="-1" k3="1"/>
<feColorMatrix type="matrix" values="0 0 0 0 0 0 0 0 0 0 0 0 0 0 0 0 0 0 0.15 0"/>
<feBlend mode="normal" in2="effect1_innerShadow_438_5834" result="effect2_innerShadow_438_5834"/>
</filter>
</defs>
</svg>
