<svg width="21" height="24" viewBox="0 0 21 24" fill="none" xmlns="http://www.w3.org/2000/svg">
<path d="M15.7 1.6V5.7C15.7 6.5 14.9 7.2 14 7.2H6.9C6 7.2 5.2 6.5 5.2 5.7V0H2C0.9 0 0 0.9 0 2V22C0 23.1 0.9 24 2 24H4V14.4C4 13.3 4.9 12.4 6 12.4H14.8C15.9 12.4 16.8 13.3 16.8 14.4V24H18.8C19.9 24 20.8 23.1 20.8 22V7.9C20.8 7.2 20.5 6.5 20 6L15.7 1.6Z" fill="white"/>
<path d="M14.9004 13.7998H6.00039C5.70039 13.7998 5.40039 14.0998 5.40039 14.3998V23.9998H15.5004V14.3998C15.5004 14.0998 15.2004 13.7998 14.9004 13.7998Z" fill="white"/>
<path d="M6.9 5.8H14C14.2 5.8 14.3 5.7 14.3 5.6V0.4C14 0.1 13.5 0 13 0H6.5V5.6C6.5 5.7 6.7 5.8 6.9 5.8Z" fill="white"/>
</svg>
