<svg width="14" height="24" viewBox="0 0 14 24" fill="none" xmlns="http://www.w3.org/2000/svg">
<path d="M7.05004 16.3682C6.32409 16.3682 5.80097 16.2678 5.4807 16.0669C5.18178 15.8438 4.98961 15.5649 4.9042 15.2301C4.84015 14.8954 4.80812 14.5384 4.80812 14.159V12.954C4.80812 12.3291 4.92556 11.8382 5.16042 11.4812C5.39529 11.1018 5.69421 10.8006 6.05719 10.5774C6.42017 10.3319 6.8045 10.1199 7.21018 9.94142C7.61586 9.7629 8.00019 9.57322 8.36317 9.37239C8.72615 9.14923 9.02507 8.87029 9.25994 8.53556C9.49481 8.20084 9.61224 7.74338 9.61224 7.16318C9.61224 6.3152 9.38805 5.69038 8.93966 5.2887C8.49128 4.86471 7.80803 4.65272 6.88991 4.65272C6.46287 4.65272 6.08922 4.71967 5.76894 4.85356C5.44867 4.98745 5.19245 5.15481 5.00029 5.35565C4.80812 5.55648 4.65866 5.77964 4.5519 6.0251C4.38109 6.56067 4.17825 6.98466 3.94338 7.29707C3.72986 7.60948 3.45229 7.79916 3.11067 7.86611C2.76904 7.91074 2.32066 7.82148 1.76551 7.59833C1.16767 7.35286 0.729959 7.11855 0.452388 6.8954C0.174817 6.64993 0.0253551 6.35983 0.00400343 6.0251C-0.0173482 5.69038 0.0467067 5.25523 0.196168 4.71966C0.238871 4.54114 0.34563 4.27336 0.516443 3.91632C0.687256 3.53696 0.922124 3.13528 1.22105 2.7113C1.54132 2.26499 1.95768 1.841 2.47012 1.43933C2.98256 1.01534 3.60175 0.669455 4.32771 0.401672C5.05367 0.133891 5.90773 0 6.88991 0C8.27776 0 9.50548 0.312413 10.5731 0.937238C11.6406 1.56206 12.4734 2.39888 13.0712 3.4477C13.6904 4.49651 14 5.70153 14 7.06276C14 7.97769 13.8719 8.78103 13.6157 9.4728C13.3595 10.1646 13.0285 10.7559 12.6228 11.2469C12.2171 11.7155 11.7794 12.106 11.3097 12.4184C10.8613 12.7085 10.445 12.9428 10.0606 13.1213C9.67629 13.2775 9.3667 13.3891 9.13183 13.4561L9.35602 13.0544V14.3598C9.35602 14.7169 9.31332 15.0516 9.22791 15.364C9.1425 15.6764 8.93966 15.9219 8.61939 16.1004C8.29911 16.2789 7.776 16.3682 7.05004 16.3682ZM6.98599 24C5.93976 24 5.24583 23.788 4.9042 23.364C4.56258 22.94 4.39176 22.2371 4.39176 21.2552C4.39176 20.8312 4.42379 20.4073 4.48785 19.9833C4.57325 19.5593 4.79745 19.2134 5.16042 18.9456C5.5234 18.6778 6.1426 18.5439 7.01802 18.5439C8.10695 18.5439 8.81155 18.7559 9.13183 19.1799C9.47345 19.5816 9.64427 20.2845 9.64427 21.2887C9.64427 21.7127 9.60156 22.1367 9.51616 22.5607C9.4521 22.9623 9.22791 23.3082 8.84358 23.5983C8.4806 23.8661 7.86141 24 6.98599 24Z" fill="#607E9C"/>
</svg>
