<svg width="34" height="28" viewBox="0 0 34 28" fill="none" xmlns="http://www.w3.org/2000/svg">
<path fill-rule="evenodd" clip-rule="evenodd" d="M24.3002 5.99971L26.7002 1.89971C27.1002 1.29971 26.8002 0.49971 26.2002 0.19971C25.6002 -0.20029 24.8002 0.0997102 24.5002 0.69971L9.8002 26.0997C9.4002 26.6997 9.7002 27.4997 10.3002 27.7997C10.9002 28.1997 11.7002 27.8997 12.0002 27.2997L14.3002 23.2997C15.1002 23.3997 15.9002 23.3997 16.7002 23.3997C23.5002 23.3997 29.6002 19.9997 33.2002 14.6997C33.5002 14.1997 33.5002 13.4997 33.2002 13.0997C31.0002 9.99971 27.9002 7.49971 24.3002 5.99971ZM16.7002 21.1997C16.3002 21.1997 15.9002 21.1997 15.6002 21.0997L17.0002 18.5997C19.4002 18.3997 21.3002 16.3997 21.3002 13.9997C21.3002 13.2997 21.1002 12.5997 20.8002 11.9997L22.2002 9.49971C23.2002 10.6997 23.8002 12.2997 23.8002 13.9997C23.9002 17.8997 20.7002 21.1997 16.7002 21.1997ZM9.9002 22.2997C6.0002 20.8997 2.6002 18.1997 0.300195 14.7997C0.00019531 14.2997 0.00019531 13.5997 0.300195 13.1997C3.9002 7.99971 9.90019 4.49971 16.8002 4.49971C17.9002 4.49971 19.0002 4.59971 20.1002 4.79971L18.7002 7.19971C18.1002 6.99971 17.4002 6.89971 16.7002 6.89971C13.2002 6.89971 10.1002 9.59971 9.7002 13.0997C9.4002 15.4997 10.3002 17.5997 11.8002 19.0997L9.9002 22.2997ZM16.7002 9.39971C16.9002 9.39971 17.1002 9.39971 17.3002 9.39971L13.1002 16.6997C12.5002 15.9997 12.1002 14.9997 12.1002 13.9997C12.1002 11.4997 14.2002 9.39971 16.7002 9.39971Z" fill="#29B0FF"/>
</svg>
