<svg width="24" height="24" viewBox="0 0 24 24" fill="none" xmlns="http://www.w3.org/2000/svg">
<g clip-path="url(#clip0_365_278)">
<path d="M2.24492 6.06255H3.64492V1.66255C3.64492 0.662549 2.84492 -0.137451 1.84492 -0.137451C0.844922 -0.137451 0.0449219 0.662549 0.0449219 1.66255V3.76255C0.0449219 5.06255 1.04492 6.06255 2.24492 6.06255Z" fill="#1275AF"/>
<path d="M22.6451 19.3625H9.24512C9.84512 19.9625 10.2451 20.7625 10.2451 21.5625C10.2451 22.4625 9.84512 23.2625 9.24512 23.7625H22.4451C22.5451 23.7625 22.6451 23.7625 22.6451 23.7625C23.4451 23.3625 23.9451 22.4625 23.9451 21.5625C24.0451 20.6625 23.4451 19.7625 22.6451 19.3625Z" fill="#1275AF"/>
<path d="M8.24531 18.7625H20.6453V2.06255C20.6453 0.862549 19.6453 -0.137451 18.4453 -0.137451H3.44531C3.94531 0.262549 4.24531 0.962549 4.24531 1.66255V20.7625C4.24531 22.4625 5.64531 23.8625 7.34531 23.8625H8.14531C9.04531 23.4625 9.64531 22.5625 9.64531 21.6625C9.64531 20.7625 9.04531 19.7625 8.14531 19.3625C8.04531 19.2625 7.94531 19.1625 7.94531 18.9625C7.94531 18.8625 8.04531 18.7625 8.24531 18.7625ZM7.84531 4.26255C8.14531 4.26255 8.24531 4.16255 8.44531 3.96255C8.64531 3.76255 8.94531 3.46255 9.44531 3.46255C9.94531 3.46255 10.2453 3.76255 10.4453 3.96255C10.6453 4.16255 10.7453 4.26255 11.0453 4.26255C11.3453 4.26255 11.4453 4.16255 11.6453 3.96255C11.8453 3.76255 12.1453 3.46255 12.6453 3.46255C13.1453 3.46255 13.4453 3.76255 13.6453 3.96255C13.8453 4.16255 13.9453 4.26255 14.2453 4.26255C14.5453 4.26255 14.6453 4.16255 14.8453 3.96255C15.0453 3.76255 15.3453 3.46255 15.8453 3.46255C16.3453 3.46255 16.6453 3.76255 16.8453 3.96255C17.0453 4.16255 17.1453 4.26255 17.4453 4.26255C17.6453 4.26255 17.7453 4.36255 17.7453 4.56255C17.7453 4.76255 17.6453 4.86255 17.4453 4.86255C16.9453 4.86255 16.6453 4.56255 16.4453 4.36255C16.2453 4.16255 16.1453 4.06255 15.8453 4.06255C15.5453 4.06255 15.4453 4.16255 15.2453 4.36255C14.8453 4.66255 14.5453 4.86255 14.0453 4.86255C13.5453 4.86255 13.2453 4.56255 13.0453 4.36255C12.8453 4.16255 12.7453 4.06255 12.4453 4.06255C12.1453 4.06255 12.0453 4.26255 11.9453 4.46255C11.7453 4.66255 11.4453 4.96255 10.9453 4.96255C10.4453 4.96255 10.1453 4.66255 9.94531 4.46255C9.74531 4.26255 9.64531 4.16255 9.34531 4.16255C9.04531 4.16255 8.94531 4.26255 8.84531 4.46255C8.54531 4.66255 8.34531 4.86255 7.84531 4.86255C7.64531 4.86255 7.44531 4.76255 7.44531 4.56255C7.44531 4.46255 7.64531 4.26255 7.84531 4.26255ZM7.84531 7.66255C8.14531 7.66255 8.24531 7.56255 8.44531 7.36255C8.64531 7.16255 8.94531 6.86255 9.44531 6.86255C9.94531 6.86255 10.2453 7.16255 10.4453 7.36255C10.6453 7.56255 10.7453 7.66255 11.0453 7.66255C11.3453 7.66255 11.4453 7.56255 11.6453 7.36255C11.8453 7.16255 12.1453 6.86255 12.6453 6.86255C13.1453 6.86255 13.4453 7.16255 13.6453 7.36255C13.8453 7.56255 13.9453 7.66255 14.2453 7.66255C14.5453 7.66255 14.6453 7.56255 14.8453 7.36255C15.0453 7.16255 15.3453 6.86255 15.8453 6.86255C16.3453 6.86255 16.6453 7.16255 16.8453 7.36255C17.0453 7.56255 17.1453 7.66255 17.4453 7.66255C17.6453 7.66255 17.7453 7.76255 17.7453 7.96255C17.7453 8.16255 17.6453 8.26255 17.4453 8.26255C16.9453 8.26255 16.6453 7.96255 16.4453 7.76255C16.2453 7.56255 16.1453 7.46255 15.8453 7.46255C15.5453 7.46255 15.4453 7.56255 15.2453 7.76255C15.0453 7.96255 14.7453 8.26255 14.2453 8.26255C13.7453 8.26255 13.4453 7.96255 13.2453 7.76255C13.0453 7.56255 12.9453 7.46255 12.6453 7.46255C12.3453 7.46255 12.0453 7.66255 11.9453 7.86255C11.7453 8.06255 11.4453 8.36255 10.9453 8.36255C10.4453 8.36255 10.1453 8.06255 9.94531 7.86255C9.74531 7.66255 9.64531 7.56255 9.34531 7.56255C9.04531 7.56255 8.94531 7.66255 8.84531 7.86255C8.64531 8.06255 8.34531 8.36255 7.84531 8.36255C7.64531 8.36255 7.54531 8.26255 7.54531 8.06255C7.44531 7.86255 7.64531 7.66255 7.84531 7.66255ZM7.84531 11.0625C8.14531 11.0625 8.24531 10.9625 8.44531 10.7625C8.64531 10.5625 8.94531 10.2625 9.44531 10.2625C9.94531 10.2625 10.2453 10.5625 10.4453 10.7625C10.6453 10.9625 10.7453 11.0625 11.0453 11.0625C11.3453 11.0625 11.4453 10.9625 11.6453 10.7625C11.8453 10.5625 12.1453 10.2625 12.6453 10.2625C13.1453 10.2625 13.4453 10.5625 13.6453 10.7625C13.8453 10.9625 13.9453 11.0625 14.2453 11.0625C14.5453 11.0625 14.6453 10.9625 14.8453 10.7625C15.0453 10.5625 15.3453 10.2625 15.8453 10.2625C16.3453 10.2625 16.6453 10.5625 16.8453 10.7625C17.0453 10.9625 17.1453 11.0625 17.4453 11.0625C17.6453 11.0625 17.7453 11.1625 17.7453 11.3625C17.7453 11.5625 17.6453 11.6625 17.4453 11.6625C16.9453 11.6625 16.6453 11.3625 16.4453 11.1625C16.2453 10.9625 16.1453 10.8625 15.8453 10.8625C15.5453 10.8625 15.4453 10.9625 15.2453 11.1625C15.0453 11.3625 14.7453 11.6625 14.2453 11.6625C13.7453 11.6625 13.4453 11.3625 13.2453 11.1625C13.0453 10.9625 12.9453 10.8625 12.6453 10.8625C12.3453 10.8625 12.2453 10.9625 12.0453 11.1625C11.8453 11.3625 11.5453 11.6625 11.0453 11.6625C10.5453 11.6625 10.2453 11.3625 10.0453 11.1625C9.84531 10.9625 9.74531 10.8625 9.44531 10.8625C9.14531 10.8625 9.04531 10.9625 8.84531 11.1625C8.64531 11.3625 8.34531 11.6625 7.84531 11.6625C7.64531 11.6625 7.54531 11.5625 7.54531 11.3625C7.44531 11.2625 7.64531 11.0625 7.84531 11.0625ZM7.84531 15.0625C7.64531 15.0625 7.54531 14.9625 7.54531 14.7625C7.54531 14.5625 7.64531 14.4625 7.84531 14.4625C8.14531 14.4625 8.24531 14.3625 8.44531 14.1625C8.64531 13.9625 8.94531 13.6625 9.44531 13.6625C9.94531 13.6625 10.2453 13.9625 10.4453 14.1625C10.6453 14.3625 10.7453 14.4625 11.0453 14.4625C11.3453 14.4625 11.4453 14.3625 11.6453 14.1625C11.8453 13.9625 12.1453 13.6625 12.6453 13.6625C13.1453 13.6625 13.4453 13.9625 13.6453 14.1625C13.8453 14.3625 13.9453 14.4625 14.2453 14.4625C14.5453 14.4625 14.6453 14.3625 14.8453 14.1625C15.0453 13.9625 15.3453 13.6625 15.8453 13.6625C16.3453 13.6625 16.6453 13.9625 16.8453 14.1625C17.0453 14.3625 17.1453 14.4625 17.4453 14.4625C17.6453 14.4625 17.7453 14.5625 17.7453 14.7625C17.7453 14.9625 17.6453 15.0625 17.4453 15.0625C16.9453 15.0625 16.6453 14.7625 16.4453 14.5625C16.2453 14.3625 16.1453 14.2625 15.8453 14.2625C15.5453 14.2625 15.4453 14.3625 15.2453 14.5625C15.0453 14.7625 14.7453 15.0625 14.2453 15.0625C13.7453 15.0625 13.4453 14.7625 13.2453 14.5625C13.0453 14.3625 12.9453 14.2625 12.6453 14.2625C12.3453 14.2625 12.2453 14.3625 12.0453 14.5625C11.8453 14.7625 11.5453 15.0625 11.0453 15.0625C10.5453 15.0625 10.2453 14.7625 10.0453 14.5625C9.84531 14.3625 9.74531 14.2625 9.44531 14.2625C9.14531 14.2625 9.04531 14.3625 8.84531 14.5625C8.54531 14.8625 8.34531 15.0625 7.84531 15.0625Z" fill="#1275AF"/>
</g>
<defs>
<clipPath id="clip0_365_278">
<rect width="24" height="24" fill="white"/>
</clipPath>
</defs>
</svg>
