<svg width="30" height="27" viewBox="0 0 30 27" fill="none" xmlns="http://www.w3.org/2000/svg">
<path d="M30 13.2422C30 14.2416 29.2469 15.1161 28.2427 15.1161H28.1172C27.4895 15.1161 26.7364 15.1161 26.1088 15.1161V15.6158C26.1088 18.3642 26.1088 21.2375 26.1088 23.9859C26.1088 25.6099 24.8536 26.8592 23.3473 26.8592H23.2218C21.841 26.8592 20.3347 26.8592 18.954 26.8592C18.0753 26.8592 17.6987 26.3595 17.6987 25.6099C17.6987 23.9859 17.6987 22.3618 17.6987 20.7378C17.6987 19.3636 17.0711 18.4891 15.9414 18.1143C14.3096 17.6146 12.5523 18.7389 12.4268 20.363C12.3013 22.112 12.4268 23.8609 12.4268 25.6099C12.4268 26.4844 11.9247 27.109 11.046 26.9841C9.66527 26.9841 8.28452 26.9841 6.90377 26.9841C5.27197 26.9841 4.01674 25.7348 4.01674 24.1108C4.01674 21.3624 4.01674 18.614 4.01674 15.8656V15.241C3.38912 15.241 2.63598 15.241 2.00837 15.241C0.753138 15.241 0 14.4915 0 13.2422C0 12.7425 0 12.1179 0.125523 11.6181C0.251046 10.9935 0.627615 10.3689 1.25523 9.9941C5.02092 6.87095 8.91213 3.74779 12.8033 0.749558C14.0586 -0.249853 15.8159 -0.249853 17.0711 0.749558C20.9623 3.74779 24.8536 6.74602 28.7448 9.86918C29.4979 10.4938 30 11.3683 30 12.3677C30 12.6176 30 12.9923 30 13.2422Z" fill="#2966FF"/>
</svg>
