<svg width="24" height="20" viewBox="0 0 24 20" fill="none" xmlns="http://www.w3.org/2000/svg">
<path d="M11.6002 2.65472C8.7002 1.25472 6.0002 0.554724 3.5002 0.654724C2.8002 0.654724 2.2002 1.25472 2.2002 1.95472V14.0547C2.2002 14.7547 2.8002 15.3547 3.5002 15.3547C6.0002 15.4547 8.7002 16.1547 11.6002 17.4547V2.65472Z" fill="#607E9C"/>
<path d="M18.5004 3.65472L19.1004 4.05472V0.654724C18.6004 0.654724 18.0004 0.754724 17.4004 0.854724V4.15472L18.0004 3.65472C18.1004 3.55472 18.3004 3.55472 18.5004 3.65472Z" fill="#607E9C"/>
<path d="M20.5004 0.654724C20.3004 0.654724 20.2004 0.654724 20.0004 0.654724V4.75472C20.0004 4.95472 19.9004 5.05472 19.8004 5.15472C19.7004 5.25472 19.5004 5.25472 19.4004 5.15472L18.4004 4.55472L17.4004 5.45472C17.2004 5.55472 17.1004 5.65472 17.0004 5.65472C16.9004 5.65472 16.9004 5.65472 16.8004 5.65472C16.6004 5.55472 16.5004 5.45472 16.5004 5.25472V1.05472C15.2004 1.35472 13.8004 1.95472 12.4004 2.65472V17.4547C15.2004 16.1547 17.9004 15.4547 20.5004 15.3547C21.2004 15.3547 21.8004 14.7547 21.8004 14.0547V1.95472C21.8004 1.25472 21.2004 0.654724 20.5004 0.654724Z" fill="#607E9C"/>
<path d="M22.8 3.05475H22.6V14.0547C22.6 15.2547 21.7 16.2547 20.5 16.2547C18 16.3547 15.3 17.0547 12.5 18.3547C12.3 18.4548 12.1 18.4547 11.9 18.4547C11.7 18.4547 11.5 18.4548 11.3 18.3547C8.5 17.0547 5.8 16.3547 3.3 16.2547C2.1 16.2547 1.2 15.2547 1.2 14.0547V3.05475H1C0.5 3.15475 0 3.65475 0 4.35475V15.8547C0 16.5547 0.6 17.1547 1.3 17.1547H2.4C4.9 16.8547 7.7 17.4547 11 18.9547L11.8 19.3547C11.9 19.3547 11.9 19.3547 12 19.3547C12.1 19.3547 12.1 19.3547 12.2 19.3547L13 18.9547C16 17.6547 18.9 16.8547 21.6 16.6547H22.7C23.4 16.6547 24 16.0547 24 15.3547V4.35475C24 3.65475 23.5 3.15475 22.8 3.05475Z" fill="#607E9C"/>
</svg>
