<svg width="24" height="24" viewBox="0 0 24 24" fill="none" xmlns="http://www.w3.org/2000/svg">
<rect width="24" height="24" rx="12" fill="#607E9C"/>
<path d="M11.75 19.162C11.21 19.162 10.826 19.084 10.598 18.928C10.37 18.76 10.232 18.55 10.184 18.298C10.148 18.046 10.13 17.788 10.13 17.524V11.656C10.13 11.392 10.154 11.14 10.202 10.9C10.25 10.648 10.388 10.444 10.616 10.288C10.844 10.12 11.228 10.036 11.768 10.036C12.308 10.036 12.686 10.12 12.902 10.288C13.13 10.444 13.268 10.648 13.316 10.9C13.364 11.152 13.388 11.416 13.388 11.692V17.542C13.388 17.806 13.364 18.064 13.316 18.316C13.268 18.568 13.13 18.772 12.902 18.928C12.686 19.084 12.302 19.162 11.75 19.162ZM11.75 9.154C11.21 9.154 10.826 9.076 10.598 8.92C10.37 8.752 10.232 8.542 10.184 8.29C10.148 8.038 10.13 7.78 10.13 7.516C10.13 7.24 10.154 6.982 10.202 6.742C10.25 6.49 10.388 6.286 10.616 6.13C10.844 5.974 11.228 5.896 11.768 5.896C12.308 5.896 12.686 5.98 12.902 6.148C13.13 6.304 13.268 6.508 13.316 6.76C13.364 7.012 13.388 7.27 13.388 7.534C13.388 7.798 13.364 8.056 13.316 8.308C13.268 8.56 13.13 8.764 12.902 8.92C12.686 9.076 12.302 9.154 11.75 9.154Z" fill="#DFE9F4"/>
</svg>
