<svg width="30" height="24" viewBox="0 0 30 24" fill="none" xmlns="http://www.w3.org/2000/svg">
<path d="M20.1773 5.4874C21.6926 5.4874 22.921 4.25901 22.921 2.7437C22.921 1.2284 21.6926 0 20.1773 0C18.662 0 17.4336 1.2284 17.4336 2.7437C17.4336 4.25901 18.662 5.4874 20.1773 5.4874Z" fill="#FF8429"/>
<path d="M26.0383 22.4485C26.5371 22.0744 26.7866 21.3261 26.4124 20.7025C24.7912 18.333 23.1699 16.0881 21.4239 13.8433C21.1745 13.4691 20.6756 13.2197 20.1768 13.2197C20.1768 13.2197 17.8072 13.2197 16.6848 13.2197L18.1813 9.72771C19.4285 10.1018 22.0475 10.9748 22.0475 10.9748C22.2969 11.2243 22.671 11.2243 23.0452 10.9748C23.0452 10.9748 28.1584 8.35586 29.2808 7.857C29.9044 7.60757 30.1538 6.85929 29.9044 6.23572C29.655 5.61216 28.9067 5.36273 28.2831 5.61216C27.1607 6.11101 22.4216 7.98172 22.4216 7.98172C21.2992 7.48286 10.5738 2.74374 10.5738 2.74374C10.1997 2.49431 9.82552 2.49431 9.45138 2.61903C8.70309 2.99317 5.58525 4.48973 4.83697 4.73916C4.2134 4.98859 3.83926 5.73687 4.08869 6.36044C4.33812 6.98401 4.96168 7.35815 5.58525 7.10872C6.45825 6.85929 9.20195 5.9863 9.82552 5.86158C10.6985 6.36044 11.6962 6.85929 12.5692 7.35815C11.6962 9.47828 10.0749 13.7185 9.7008 14.4668C8.70309 15.9634 7.70539 17.46 6.83239 18.9565C5.0864 18.2082 3.46512 17.46 1.71913 16.7117C1.09556 16.4622 0.347279 16.7117 0.0978516 17.3352C-0.151576 17.8341 0.0978515 18.4577 0.596706 18.8318C2.59212 20.2037 4.71226 21.5755 6.70768 22.8226C7.45596 23.3215 8.45367 23.0721 8.95252 22.4485L13.0681 17.46C13.0681 17.46 17.3083 17.2105 19.4285 17.0858C21.1745 18.9565 22.7957 20.7025 24.6664 22.4485C24.9159 22.8226 25.5394 22.8226 26.0383 22.4485Z" fill="#FF8429"/>
</svg>
