<svg width="30" height="20" viewBox="0 0 30 20" fill="none" xmlns="http://www.w3.org/2000/svg">
<path fill-rule="evenodd" clip-rule="evenodd" d="M13.125 19.8685C12.75 20.1098 12.375 19.9891 12 19.7478L0.375 10.8185C0.125 10.5772 0 10.3359 0 9.97386C0 9.61186 0.125 9.37053 0.375 9.1292L12 0.199925C12.375 -0.041408 12.75 -0.041408 13.125 0.0792585C13.5 0.32059 13.75 0.682589 13.75 1.04459V5.62989L28.875 5.62989C29.5 5.62989 30 6.11255 30 6.71588V13.3525C30 13.9558 29.5 14.4385 28.875 14.4385L13.75 14.4385V18.9031C13.75 19.3858 13.5 19.7478 13.125 19.8685Z" fill="#29B0FF"/>
</svg>
