<svg width="18" height="16" viewBox="0 0 18 16" fill="none" xmlns="http://www.w3.org/2000/svg">
<path fill-rule="evenodd" clip-rule="evenodd" d="M0.45047 9.09176L6.83212 15.4918C7.50782 16.1694 8.55892 16.1694 9.15954 15.4918C9.83524 14.8141 9.83524 13.76 9.15954 13.1576L4.05422 8.03765L9.15954 2.91765C9.83524 2.24 9.83524 1.18588 9.15954 0.583529C8.48384 -0.0941176 7.43274 -0.0941176 6.83212 0.583529L0.45047 6.98353C-0.150156 7.51059 -0.150156 8.48941 0.45047 9.09176ZM8.78415 6.98353L15.1658 0.508235C15.8415 -0.169412 16.8926 -0.169412 17.4932 0.508235C18.0938 1.18588 18.1689 2.24 17.4932 2.84235L12.3879 7.96235L17.4932 13.0824C18.1689 13.76 18.1689 14.8141 17.4932 15.4165C16.8175 16.0188 15.7664 16.0941 15.1658 15.4165L8.78415 9.01647C8.18352 8.48941 8.18352 7.51059 8.78415 6.98353Z" fill="white"/>
</svg>
