<svg width="24" height="24" viewBox="0 0 24 24" fill="none" xmlns="http://www.w3.org/2000/svg">
<path d="M22.7 12.9L19.5 16.1C19 16.6 18.1 16.6 17.6 16.1C17.1 15.6 17.1 14.7 17.6 14.2L18.6 13.2H9.6C8.9 13.2 8.3 12.6 8.3 11.9C8.3 11.2 8.9 10.6 9.6 10.6H18.6L17.6 9.6C17.1 9.1 17.1 8.2 17.6 7.7C18.1 7.2 19 7.2 19.5 7.7L22.7 10.9C23.3 11.6 23.3 12.4 22.7 12.9ZM14.2 15.6C13.5 15.6 12.9 16.2 12.9 16.9V21.3H2.7V2.7H12.9V7.1C12.9 7.8 13.5 8.4 14.2 8.4C14.9 8.4 15.5 7.8 15.5 7.1V1.3C15.5 0.6 15 0 14.2 0H1.3C0.6 0 0 0.6 0 1.3V22.6C0 23.4 0.6 24 1.3 24H14.2C14.9 24 15.5 23.4 15.5 22.7V16.9C15.6 16.1 15 15.6 14.2 15.6Z" fill="#607E9C"/>
</svg>
