<svg width="20" height="20" viewBox="0 0 20 20" fill="none" xmlns="http://www.w3.org/2000/svg">
<path d="M9.78369 0.75C10.8903 0.75 11.9087 1.68052 11.9087 2.875V7.875H16.9087C18.0968 7.875 19.0337 8.81193 19.0337 10C19.0337 11.1881 18.0968 12.125 16.9087 12.125H11.9087V17.125C11.9087 18.3131 10.9718 19.25 9.78369 19.25C8.59562 19.25 7.65869 18.3131 7.65869 17.125V12.125H2.65869C1.47062 12.125 0.533691 11.1881 0.533691 10C0.533691 8.81193 1.47062 7.875 2.65869 7.875H7.65869V2.875C7.65869 1.68693 8.59562 0.75 9.78369 0.75Z" fill="white" stroke="white" stroke-width="0.5"/>
</svg>
