<svg width="19" height="24" viewBox="0 0 19 24" fill="none" xmlns="http://www.w3.org/2000/svg">
<path d="M17.6 0H15.5V9.2C15.5 9.5 15.3 9.7 15.1 9.8C15 9.8 14.9 9.9 14.8 9.9C14.6 9.9 14.4 9.8 14.3 9.7L13.4 8.8L12.5 9.7C12.3 9.9 12 10 11.7 9.8C11.4 9.7 11.3 9.4 11.3 9.2V0H0.7C0.3 0 0 0.3 0 0.7V23.3C0 23.7 0.3 24 0.7 24H12.7V19.1C12.7 18.7 13 18.4 13.4 18.4H18.3V0.8C18.4 0.3 18 0 17.6 0ZM3.5 4.2H9.1C9.5 4.2 9.8 4.5 9.8 4.9C9.8 5.3 9.5 5.6 9.1 5.6H3.5C3.1 5.6 2.8 5.3 2.8 4.9C2.8 4.6 3.1 4.2 3.5 4.2ZM3.5 7.8H9.1C9.5 7.8 9.8 8.1 9.8 8.5C9.8 8.9 9.5 9.2 9.1 9.2H3.5C3.1 9.2 2.8 8.9 2.8 8.5C2.8 8.1 3.1 7.8 3.5 7.8ZM14.1 16.2H3.5C3.1 16.2 2.8 15.9 2.8 15.5C2.8 15.1 3.1 14.8 3.5 14.8H14.1C14.5 14.8 14.8 15.1 14.8 15.5C14.8 15.9 14.5 16.2 14.1 16.2ZM14.1 12.7H3.5C3.1 12.7 2.8 12.4 2.8 12C2.8 11.6 3.1 11.3 3.5 11.3H14.1C14.5 11.3 14.8 11.6 14.8 12C14.8 12.4 14.5 12.7 14.1 12.7ZM12.9 7.3L12.7 7.5V0H14.1V7.5L13.9 7.3C13.8 7.2 13.6 7.1 13.4 7.1C13.2 7.1 13.1 7.1 12.9 7.3ZM16.9 19.8H18.3C18 22 16.3 23.7 14.1 24V19.8H16.9Z" fill="#607E9C"/>
</svg>
