<svg width="24" height="24" viewBox="0 0 24 24" fill="none" xmlns="http://www.w3.org/2000/svg">
<g clip-path="url(#clip0_931_323)">
<path d="M5.75 6.06328C5.75 9.46328 8.55 12.2633 11.95 12.2633C15.35 12.2633 18.15 9.46328 18.15 6.06328C18.15 2.66328 15.35 -0.136719 11.95 -0.136719C8.55 -0.136719 5.75 2.66328 5.75 6.06328Z" fill="#607E9C"/>
<path d="M0.549951 23.8637H23.45C23.75 23.8637 24.05 23.5637 24.05 23.2637C24.05 19.0637 21.85 15.1637 18.25 12.9637C18.0499 12.8637 17.85 12.8637 17.65 12.9637C15.95 13.9637 14.05 14.5637 12.05 14.5637C10.05 14.5637 7.94995 14.0637 6.34995 13.0637C6.14995 12.9637 5.94995 12.9637 5.74995 13.0637C2.04995 15.2637 -0.0500488 19.0637 -0.0500488 23.2637C-0.0500488 23.5637 0.149951 23.8637 0.549951 23.8637Z" fill="#607E9C"/>
</g>
<defs>
<clipPath id="clip0_931_323">
<rect width="24" height="24" fill="white"/>
</clipPath>
</defs>
</svg>
