<svg width="24" height="24" viewBox="0 0 24 24" fill="none" xmlns="http://www.w3.org/2000/svg">
<g clip-path="url(#clip0_365_256)">
<path d="M5.75 6.06255C5.75 9.46255 8.55 12.2625 11.95 12.2625C15.35 12.2625 18.15 9.46255 18.15 6.06255C18.15 2.66255 15.35 -0.137451 11.95 -0.137451C8.55 -0.137451 5.75 2.66255 5.75 6.06255Z" fill="#1275AF"/>
<path d="M0.550195 23.8625H23.4502C23.7502 23.8625 24.0502 23.5625 24.0502 23.2625C24.0502 19.0625 21.8502 15.1625 18.2502 12.9625C18.0502 12.8625 17.8502 12.8625 17.6502 12.9625C15.9502 13.9625 14.0502 14.5625 12.0502 14.5625C10.0502 14.5625 7.9502 14.0625 6.3502 13.0625C6.1502 12.9625 5.9502 12.9625 5.7502 13.0625C2.0502 15.2625 -0.0498047 19.0625 -0.0498047 23.2625C-0.0498047 23.5625 0.150195 23.8625 0.550195 23.8625Z" fill="#1275AF"/>
</g>
<defs>
<clipPath id="clip0_365_256">
<rect width="24" height="24" fill="white"/>
</clipPath>
</defs>
</svg>
