<svg width="24" height="24" viewBox="0 0 24 24" fill="none" xmlns="http://www.w3.org/2000/svg">
<g clip-path="url(#clip0_365_264)">
<path d="M3.2998 4.36255H2.5998C2.0998 4.36255 1.7998 4.76255 1.7998 5.16255V7.06255H3.2998V4.36255Z" fill="#1275AF"/>
<path d="M17.4004 2.26255C17.4004 2.36255 17.5004 2.46255 17.6004 2.46255H20.0004C20.0004 2.36255 19.9004 2.26255 19.8004 2.16255L17.7004 0.0625488C17.6004 -0.0374512 17.5004 -0.137451 17.4004 -0.137451V2.26255Z" fill="#1275AF"/>
<path d="M22.2002 9.56255V5.16255C22.2002 4.66255 21.8002 4.36255 21.4002 4.36255H20.7002V9.56255H22.2002Z" fill="#1275AF"/>
<path d="M4 3.96255V7.06255H5C5.8 7.06255 6.5 7.66255 6.6 8.46255V8.66255C6.6 9.06255 7 9.46255 7.4 9.46255H20V3.26255H17.6C17.1 3.26255 16.6 2.86255 16.6 2.26255V-0.137451H4.4C4.2 -0.137451 4 0.0625488 4 0.262549V3.96255ZM16.5 8.26255H8.3C8.1 8.26255 7.9 8.06255 7.9 7.86255C7.9 7.66255 8.1 7.46255 8.3 7.46255H16.5C16.7 7.46255 16.9 7.66255 16.9 7.86255C16.8 8.06255 16.7 8.26255 16.5 8.26255ZM18.4 8.26255H18.2C18 8.26255 17.8 8.06255 17.8 7.86255C17.8 7.66255 18 7.46255 18.2 7.46255H18.4C18.6 7.46255 18.8 7.66255 18.8 7.86255C18.7 8.06255 18.6 8.26255 18.4 8.26255ZM18.4 5.36255C18.6 5.36255 18.8 5.56255 18.8 5.76255C18.8 5.96255 18.6 6.16255 18.4 6.16255H14.1C13.9 6.16255 13.7 5.96255 13.7 5.76255C13.7 5.56255 13.9 5.36255 14.1 5.36255H18.4ZM15.4 3.66255C15.4 3.86255 15.2 4.06255 15 4.06255H10.5C10.3 4.06255 10.1 3.86255 10.1 3.66255C10.1 3.46255 10.3 3.26255 10.5 3.26255H15C15.2 3.26255 15.4 3.46255 15.4 3.66255ZM5.6 1.06255H11.8C12 1.06255 12.2 1.26255 12.2 1.46255C12.2 1.66255 12.1 1.86255 11.9 1.86255H5.6C5.4 1.86255 5.3 1.66255 5.3 1.46255C5.3 1.26255 5.4 1.06255 5.6 1.06255ZM5.6 3.26255H8.7C8.9 3.26255 9.1 3.46255 9.1 3.66255C9.1 3.86255 9 3.96255 8.7 3.96255H5.6C5.4 3.96255 5.3 3.86255 5.3 3.66255C5.3 3.46255 5.4 3.26255 5.6 3.26255ZM5.6 5.36255H12.6C12.8 5.36255 13 5.56255 13 5.76255C13 5.96255 12.8 6.16255 12.6 6.16255H5.6C5.4 6.16255 5.2 5.96255 5.2 5.76255C5.2 5.56255 5.4 5.36255 5.6 5.36255Z" fill="#1275AF"/>
<path d="M23.2 10.2625H7.5C6.7 10.2625 6 9.66255 5.9 8.86255V8.66255C5.8 8.16255 5.5 7.86255 5 7.86255H0.8C0.6 7.86255 0.4 7.96255 0.2 8.06255C0.1 8.26255 0 8.56255 0 8.76255L1.5 23.0625C1.5 23.4625 1.9 23.8625 2.3 23.8625H21.9C22.3 23.8625 22.7 23.5625 22.7 23.0625L24 11.1625C24 10.9625 23.9 10.6625 23.8 10.4625C23.6 10.3625 23.4 10.2625 23.2 10.2625Z" fill="#1275AF"/>
</g>
<defs>
<clipPath id="clip0_365_264">
<rect width="24" height="24" fill="white"/>
</clipPath>
</defs>
</svg>
