<svg width="24" height="23" viewBox="0 0 24 23" fill="none" xmlns="http://www.w3.org/2000/svg">
<path d="M3.69592 0C2.99592 0 2.39592 0.5 2.19592 1.2L0.195916 7C-0.404084 8.8 0.395916 10.2 2.29592 10.6C4.29592 11 6.29592 11.4 8.29592 11.8C9.59592 12.1 10.7959 10.8 9.99592 9.4L9.19592 7.9L10.2959 7.2C13.9959 5 18.4959 8 17.8959 12.4C17.2959 17.2 11.4959 18.9 8.29592 15.5C6.19592 13.2 2.49592 16.9 4.89592 19.3C12.1959 26.2 23.0959 21.2 23.8959 12.6C24.2959 7.8 21.6959 3.6 17.7959 1.6C15.8959 0.6 13.5959 0.3 11.2959 0.6C9.59592 0.8 7.89592 1.5 6.09592 2.6L5.09592 0.9C4.69592 0.3 4.19592 0 3.69592 0Z" fill="white"/>
</svg>
