<svg width="18" height="16" viewBox="0 0 18 16" fill="none" xmlns="http://www.w3.org/2000/svg">
<path fill-rule="evenodd" clip-rule="evenodd" d="M17.5495 9.09176L11.1679 15.4918C10.4922 16.1694 9.44108 16.1694 8.84046 15.4918C8.16476 14.8141 8.16476 13.76 8.84046 13.1576L13.9458 8.03765L8.84046 2.91765C8.16476 2.24 8.16476 1.18588 8.84046 0.583529C9.51616 -0.0941176 10.5673 -0.0941176 11.1679 0.583529L17.5495 6.98353C18.1502 7.51059 18.1502 8.48941 17.5495 9.09176ZM9.21585 6.98353L2.8342 0.508235C2.1585 -0.169412 1.1074 -0.169412 0.506778 0.508235C-0.0938478 1.18588 -0.168926 2.24 0.506778 2.84235L5.6121 7.96235L0.506778 13.0824C-0.168926 13.76 -0.168926 14.8141 0.506778 15.4165C1.18248 16.0188 2.23358 16.0941 2.8342 15.4165L9.21585 9.01647C9.81648 8.48941 9.81648 7.51059 9.21585 6.98353Z" fill="white"/>
</svg>
