<svg width="24" height="22" viewBox="0 0 24 22" fill="none" xmlns="http://www.w3.org/2000/svg">
<path fill-rule="evenodd" clip-rule="evenodd" d="M23.4004 12.45L14.9004 20.95C14.0004 21.85 12.6004 21.85 11.8004 20.95C10.9004 20.05 10.9004 18.65 11.8004 17.85L18.6004 11.05L11.8004 4.25C10.9004 3.35 10.9004 1.95 11.8004 1.15C12.7004 0.25 14.1004 0.25 14.9004 1.15L23.4004 9.65C24.2004 10.35 24.2004 11.65 23.4004 12.45ZM12.3004 9.65L3.80039 1.05C2.90039 0.15 1.50039 0.15 0.700391 1.05C-0.0996094 1.95 -0.199609 3.35 0.700391 4.15L7.50039 10.95L0.700391 17.75C-0.199609 18.65 -0.199609 20.05 0.700391 20.85C1.60039 21.65 3.00039 21.75 3.80039 20.85L12.3004 12.35C13.1004 11.65 13.1004 10.35 12.3004 9.65Z" fill="#29B0FF"/>
</svg>
