<svg width="30" height="20" viewBox="0 0 30 20" fill="none" xmlns="http://www.w3.org/2000/svg">
<path fill-rule="evenodd" clip-rule="evenodd" d="M16.875 19.8685C17.25 20.1098 17.625 19.9891 18 19.7478L29.625 10.8185C29.875 10.5772 30 10.3359 30 9.97386C30 9.61186 29.875 9.37053 29.625 9.1292L18 0.199925C17.625 -0.041408 17.25 -0.041408 16.875 0.0792585C16.5 0.32059 16.25 0.682589 16.25 1.04459V5.62989L1.125 5.62989C0.5 5.62989 0 6.11255 0 6.71588V13.3525C0 13.9558 0.5 14.4385 1.125 14.4385L16.25 14.4385V18.9031C16.25 19.3858 16.5 19.7478 16.875 19.8685Z" fill="#29B0FF"/>
</svg>
