<svg width="24" height="24" viewBox="0 0 24 24" fill="none" xmlns="http://www.w3.org/2000/svg">
<g clip-path="url(#clip0_365_288)">
<path fill-rule="evenodd" clip-rule="evenodd" d="M5.1 3.6H9.2C10 3.6 10.7 4.3 10.7 5.1V9.2C10.7 10 10 10.7 9.2 10.7H5.1C4.3 10.7 3.6 10 3.6 9.2V5.1C3.6 4.3 4.2 3.6 5.1 3.6ZM14.9 13.4H19C19.8 13.4 20.5 14.1 20.5 14.9V19C20.5 19.8 19.8 20.5 19 20.5H14.9C14.1 20.5 13.4 19.8 13.4 19V14.9C13.4 14 14.1 13.4 14.9 13.4ZM5.1 13.4H9.2C10 13.4 10.7 14.1 10.7 14.9V19C10.7 19.8 10 20.5 9.2 20.5H5.1C4.3 20.5 3.6 19.8 3.6 19V14.9C3.6 14.1 4.2 13.4 5.1 13.4ZM14.9 3.6H19C19.8 3.6 20.5 4.3 20.5 5.1V9.2C20.5 10 19.8 10.7 19 10.7H14.9C14.1 10.7 13.4 10 13.4 9.2V5C13.4 4.2 14.1 3.6 14.9 3.6ZM1.6 7.3V3.1C1.6 2.3 2.3 1.6 3.1 1.6H7.3C7.7 1.6 8 1.2 8 0.8C8 0.4 7.7 0 7.3 0H3.1C1.4 0 0 1.4 0 3.1V7.3C0 7.7 0.4 8 0.8 8C1.2 8 1.6 7.7 1.6 7.3ZM7.3 22.4H3.1C2.3 22.4 1.6 21.7 1.6 20.9V16.7C1.6 16.3 1.2 15.9 0.8 15.9C0.4 15.9 0 16.3 0 16.7V20.9C0 22.6 1.4 24 3.1 24H7.3C7.7 24 8 23.6 8 23.2C8 22.8 7.7 22.4 7.3 22.4ZM22.4 16.7V20.9C22.4 21.7 21.7 22.4 20.9 22.4H16.7C16.3 22.4 15.9 22.8 15.9 23.2C15.9 23.6 16.2 24 16.7 24H20.9C22.6 24 24 22.6 24 20.9V16.7C24 16.3 23.6 15.9 23.2 15.9C22.8 15.9 22.4 16.3 22.4 16.7ZM16.7 1.6H20.9C21.7 1.6 22.4 2.3 22.4 3.1V7.3C22.4 7.7 22.8 8.1 23.2 8.1C23.6 8.1 24 7.7 24 7.3V3.1C24 1.4 22.6 0 20.9 0H16.7C16.3 0 16 0.4 16 0.8C16 1.2 16.3 1.6 16.7 1.6Z" fill="#1275AF"/>
</g>
<defs>
<clipPath id="clip0_365_288">
<rect width="24" height="24" fill="white"/>
</clipPath>
</defs>
</svg>
