<svg width="24" height="22" viewBox="0 0 24 22" fill="none" xmlns="http://www.w3.org/2000/svg">
<path d="M10.9 0.400024C8.9 0.400024 9.5 3.80002 2.8 5.70002C0.9 6.20002 0 6.60002 0 8.50002V13.6C0 15.5 0.9 15.9 2.8 16.4C9.5 18.3 8.9 21.6 10.9 21.6H11.8C12.7 21.6 13.4 20.9 13.4 20V2.00002C13.4 1.10002 12.7 0.400024 11.8 0.400024L10.9 0.400024Z" fill="#29B0FF"/>
<path d="M16.7997 5.70001C15.7997 5.70001 15.1997 6.80001 15.6997 7.60001C16.8997 9.70001 16.8997 12.4 15.6997 14.5C15.2997 15.1 15.5997 15.9 16.1997 16.3C16.7997 16.6 17.5997 16.4 17.9997 15.7C19.5997 12.8 19.5997 9.20001 17.9997 6.30001C17.7997 5.90001 17.2997 5.70001 16.7997 5.70001Z" fill="#29B0FF"/>
<path d="M20.4002 2.40004C19.4002 2.40004 18.8002 3.60004 19.4002 4.50004C20.6002 6.20004 21.4002 8.60004 21.4002 11.1C21.4002 13.6 20.6002 16 19.4002 17.7C19.0002 18.3 19.1002 19.1 19.7002 19.5C20.3002 19.9 21.1002 19.8 21.5002 19.2C23.1002 17 24.0002 14.1 24.0002 11C24.0002 8.00004 23.1002 5.10004 21.5002 2.80004C21.2002 2.50004 20.8002 2.30004 20.4002 2.40004Z" fill="#29B0FF"/>
</svg>
