<svg width="22" height="24" viewBox="0 0 22 24" fill="none" xmlns="http://www.w3.org/2000/svg">
<path d="M11 21.9C16.5 20 20 16.4 20 12.6V3.7C20 2.7 19.2 2 18.3 2H3.7C2.8 2 2 2.8 2 3.7V12.5C2 16.4 5.4 19.9 11 21.9ZM6.4 10.4C6.5 10 6.9 9.8 7.2 9.8C8.6 9.6 10 10.3 10.8 11.5C12.1 9.3 13.5 7.2 16.4 5.5C16.7 5.3 17.1 5.4 17.3 5.6C17.6 5.9 17.6 6.3 17.3 6.6C15.3 8.9 14.3 10.7 13.2 12.6C12.8 13.3 12.4 14 11.9 14.8C11.6 15.2 11.2 15.4 10.8 15.4C10.4 15.4 10 15.2 9.7 14.9C9 14 7.4 12.1 6.5 11.4C6.4 11 6.3 10.7 6.4 10.4Z" fill="#607E9C"/>
<path d="M10.4 23.8L11 24L11.5 23.8C17.9 21.6 21.9 17.3 21.9 12.6V3.3C21.9 1.5 20.4 0 18.6 0H3.3C1.5 0 0 1.5 0 3.3V12.5C0 17.3 4 21.6 10.4 23.8ZM1.4 3.7C1.4 2.4 2.5 1.3 3.8 1.3H18.3C19.6 1.3 20.7 2.4 20.7 3.7V12.5C20.7 16.6 17.1 20.4 11.2 22.5H11.1H11C5.1 20.5 1.5 16.6 1.5 12.5L1.4 3.7Z" fill="#607E9C"/>
<path d="M8.70039 12.5C9.30039 13.2 9.90039 13.9 10.3004 14.4C10.5004 14.6 10.7004 14.7 10.9004 14.7C11.1004 14.7 11.4004 14.6 11.5004 14.4C12.0004 13.7 12.4004 13 12.7004 12.3C13.8004 10.3 14.9004 8.49998 16.9004 6.19998V6.09998H16.8004C13.8004 7.89998 12.5004 9.99998 11.1004 12.4C11.0004 12.5 10.9004 12.6 10.8004 12.6C10.7004 12.6 10.6004 12.5 10.5004 12.4C9.90039 11.3 8.70039 10.5 7.60039 10.5C7.50039 10.5 7.40039 10.5 7.20039 10.5C7.10039 10.5 6.90039 10.6 6.90039 10.7V10.8C7.50039 11.1 8.10039 11.8 8.70039 12.5Z" fill="#607E9C"/>
</svg>
