<svg width="21" height="30" viewBox="0 0 21 30" fill="none" xmlns="http://www.w3.org/2000/svg">
<path fill-rule="evenodd" clip-rule="evenodd" d="M0.138124 13.125C-0.115275 12.75 0.0114244 12.375 0.264823 12L9.64056 0.375C9.89395 0.125 10.1474 0 10.5275 0C10.9075 0 11.1609 0.125 11.4143 0.375L20.7901 12C21.0435 12.375 21.0435 12.75 20.9168 13.125C20.6634 13.5 20.2833 13.75 19.9032 13.75H15.0886V28.875C15.0886 29.5 14.5818 30 13.9483 30H6.97988C6.34638 30 5.83958 29.5 5.83958 28.875V13.75H1.15172C0.64492 13.75 0.264823 13.5 0.138124 13.125Z" fill="#29B0FF"/>
</svg>
