<svg width="34" height="20" viewBox="0 0 34 20" fill="none" xmlns="http://www.w3.org/2000/svg">
<path fill-rule="evenodd" clip-rule="evenodd" d="M17 0.508301C10.6779 0.508301 5.11512 3.43702 1.4506 7.96563C0.488433 9.15468 0.488433 10.8453 1.4506 12.0343C5.11512 16.5629 10.6779 19.4916 17 19.4916C23.3221 19.4916 28.8849 16.5629 32.5494 12.0343C33.5116 10.8453 33.5116 9.15468 32.5494 7.96563C28.8849 3.43702 23.3221 0.508301 17 0.508301ZM17 17.225C13.0333 17.225 9.91667 13.9666 9.91667 10.1416C9.91667 6.17497 13.175 3.0583 17 3.0583C20.9667 3.0583 24.0833 6.31663 24.0833 10.1416C24.0833 13.9666 20.9667 17.225 17 17.225ZM21.5333 9.99997C21.5333 12.55 19.4083 14.5333 17 14.5333C14.5917 14.5333 12.4667 12.55 12.4667 9.99997C12.4667 7.44997 14.5917 5.46663 17 5.46663C19.4083 5.46663 21.5333 7.44997 21.5333 9.99997Z" fill="#29B0FF"/>
</svg>
